<?xml version="1.0" encoding="UTF-8" standalone="no"?>
<!-- Generator: Adobe Illustrator 16.0.0, SVG Export Plug-In . SVG Version: 6.00 Build 0)  -->

<svg
   xmlns:dc="http://purl.org/dc/elements/1.1/"
   xmlns:cc="http://creativecommons.org/ns#"
   xmlns:rdf="http://www.w3.org/1999/02/22-rdf-syntax-ns#"
   xmlns:svg="http://www.w3.org/2000/svg"
   xmlns="http://www.w3.org/2000/svg"
   xmlns:sodipodi="http://sodipodi.sourceforge.net/DTD/sodipodi-0.dtd"
   xmlns:inkscape="http://www.inkscape.org/namespaces/inkscape"
   version="1.1"
   id="Õ_xBA__x2264__x201E__x5F_1"
   x="0px"
   y="0px"
   width="595.28px"
   height="841.89px"
   viewBox="0 0 595.28 841.89"
   enable-background="new 0 0 595.28 841.89"
   xml:space="preserve"
   inkscape:version="0.48.2 r9819"
   sodipodi:docname="scrambler.svg"><metadata
   id="metadata33"><rdf:RDF><cc:Work
       rdf:about=""><dc:format>image/svg+xml</dc:format><dc:type
         rdf:resource="http://purl.org/dc/dcmitype/StillImage" /><dc:title></dc:title></cc:Work></rdf:RDF></metadata><defs
   id="defs31">
	
	
	
	
	
	
	
	
</defs><sodipodi:namedview
   pagecolor="#ffffff"
   bordercolor="#666666"
   borderopacity="1"
   objecttolerance="10"
   gridtolerance="10"
   guidetolerance="10"
   inkscape:pageopacity="0"
   inkscape:pageshadow="2"
   inkscape:window-width="1216"
   inkscape:window-height="1032"
   id="namedview29"
   showgrid="false"
   inkscape:zoom="2.0236139"
   inkscape:cx="301.83389"
   inkscape:cy="295.37593"
   inkscape:window-x="1271"
   inkscape:window-y="0"
   inkscape:window-maximized="0"
   inkscape:current-layer="Õ_xBA__x2264__x201E__x5F_1" />
<g
   id="g3798"
   transform="translate(-89.719364,-166.7226)"><path
     d="m 307.503,395.74765 c 0,0 -29.292,-33.6044 -61.063,-28.47827 -31.77,5.13518 -23.929,38.74525 -23.929,38.74525 l -8.252,21.46844 -6.185,-59.74644 -47.041,5.60016 -17.739,14.00608 c 0,0 -0.414,12.59529 -0.822,26.60137 -0.414,14.00608 4.124,50.87895 -11.141,47.61727 -15.263,-3.27299 -14.025,-12.14162 -23.106,-7.94432 -9.074,4.20522 -10.726,5.59791 -11.963,25.67253 -1.236,20.07576 2.476,35.01407 17.326,20.07576 14.854,-14.93492 19.396,-5.6013 21.872,6.06515 2.474,11.66872 7.013,42.00805 5.773,59.27581 14.027,15.87053 44.08,14.53668 52.811,10.7444 7.209,-3.13383 18.448,-9.84951 7.721,-24.32057 -10.728,-14.47106 -8.548,-37.57543 10.427,-34.77422 18.982,2.80122 27.601,12.84192 19.759,32.91315 -7.841,20.07237 -8.613,29.90604 3.354,31.30891 11.96,1.41079 65.185,-13.05575 69.313,-20.53509 4.123,-7.46689 61.058,-44.80248 61.058,-44.80248 l -2.059,-78.88771 -56.114,-40.60518 z"
     id="path5"
     inkscape:connector-curvature="0"
     style="fill:#8dc21f" /><path
     d="m 457.51,393.40124 c -7.456,16.11038 -21.693,65.97225 20.343,57.53579 20.6,-6.70323 24.215,4.44393 26.841,17.44877 2.629,13.0071 -14.779,30.47962 -27.264,21.18447 -10.514,-3.71534 -30.223,-4.08982 -29.236,17.84248 0.983,21.92664 5.258,49.4263 9.525,54.62823 -14.123,11.14943 -49.932,23.4155 -54.529,1.1189 -4.596,-22.29998 11.497,-37.53696 -1.643,-45.7166 -13.14,-8.17738 -24.966,-12.2672 -34.818,10.77834 -6.24,8.91841 3.284,17.09466 5.254,23.40984 1.971,6.32196 -7.882,27.88092 -24.31,25.64877 -16.427,-2.22536 -48.289,-13.37931 -49.933,-13.37931 -1.642,0 -3.617,-46.08317 6.242,-52.40174 9.855,-6.31518 22.006,-4.4609 26.277,2.96978 4.929,8.54733 27.266,-35.30482 5.585,-54.99818 -4.269,-5.57415 -11.823,17.84022 -30.545,-1.48659 -18.728,-19.32341 -6.248,-41.62339 -5.92,-62.44018 0,0 38.109,10.77608 53.22,0 15.109,-10.77948 9.196,-20.06105 5.254,-25.63859 -3.943,-5.58433 -7.552,-19.70241 8.869,-23.04781 16.427,-3.34652 36.794,-1.1155 27.925,15.23812 -8.872,16.35249 -1.646,22.66767 4.268,27.49966 5.913,4.83198 41.966,13.19829 58.595,3.80585 z"
     id="path7"
     inkscape:connector-curvature="0"
     style="fill:#7a4f9c;stroke:#ffffff;stroke-width:1.23734188" /><path
     d="m 297.112,224.24447 c 0,0 -41.881,12.47989 -50.439,-1.64838 -13.947,-23.0297 7.544,-24.31265 -9.047,-41.3711 -18.849,-14.49595 -45.236,-14.0717 -35.811,18.76452 9.425,32.83849 -4.902,35.39873 -16.211,40.9412 -11.307,5.54699 -32.038,9.80991 -36.937,3.41101 -4.902,-6.39551 -17.717,7.25307 -18.849,31.98771 -1.131,24.73691 17.34,21.74789 32.417,16.63193 15.078,-5.11482 28.651,3.8398 28.276,14.07509 -0.378,10.23304 -10.18,34.96995 -34.683,23.45736 -24.501,-11.51712 -33.548,-6.82429 -31.289,18.33687 2.264,25.16569 15.873,43.07039 17.72,43.5003 7.887,1.8441 12.069,-11.29197 26.764,-14.07169 8.562,-1.61444 39.205,-9.38227 36.941,17.91262 -2.263,27.29827 -15.326,17.13538 -2.641,31.96395 6.813,7.96468 22.481,20.46268 37.473,-2.55798 7.461,-11.93684 -4.034,-10.55773 -4.406,-19.9366 -0.378,-9.38565 -2.906,-31.64491 14.435,-31.64491 17.338,0 42.673,15.56281 47.95,22.81362 l 25.929,-56.08541 -4.525,-90.83587 -23.067,-25.64424 z"
     id="path9"
     inkscape:connector-curvature="0"
     style="fill:#f6aa00;stroke:#ffffff;stroke-width:1.23734188" /><path
     d="m 450.421,294.63802 c -7.582,1.90632 -14.157,0.42426 -18.997,-3.79228 -4.844,-4.21313 -9.316,-8.42627 -15.278,1.68797 -5.959,10.11651 -7.077,29.50441 3.728,37.09122 10.806,7.58795 9.685,-8.0088 29.804,-2.95281 20.118,5.05825 19.377,16.43734 17.889,24.86814 -1.495,8.43306 -7.374,36.00173 -14.908,47.62972 -11.28,17.41369 -82.335,10.95596 -82.335,10.95596 L 298.839,396.4389 c 0,0 18.209,-36.88644 12.624,-51.64147 -5.595,-14.75503 -23.098,-18.9693 -33.53,-6.74509 -10.435,12.22307 -30.016,-2.14843 -31.298,-24.87041 -1.118,-19.80876 24.964,-30.34499 31.669,-17.27793 5.216,8.8494 17.136,2.53195 22.351,0.42312 5.214,-2.11109 16.022,-34.14406 -3.722,-72.07813 18.998,-6.74283 33.525,-12.64507 47.312,-5.90111 13.786,6.74283 10.432,30.34839 4.843,39.62318 -5.588,9.27026 8.195,13.90652 14.154,13.48453 5.968,-0.422 36.142,-2.1077 28.69,-20.23189 -7.45,-18.12418 -3.352,-32.87695 15.275,-34.56152 18.627,-1.68797 46.573,2.94942 50.299,6.3197 11.175,29.50554 15.265,61.54303 -7.085,71.65614 z"
     id="path11"
     inkscape:connector-curvature="0"
     style="fill:#e74c94;stroke:#ffffff;stroke-width:1.23734188" /><g
     transform="matrix(1,0,0,1.1313472,0,-23.803407)"
     id="g13">
		<path
   d="m 212.431,313.892 c 3.77,-0.924 3.901,-1.849 4.165,-4.295 0.267,-1.917 0.596,-10.511 0.596,-19.434 0,-4.165 0.064,-7.072 -0.132,-7.999 -0.067,-0.527 -0.464,-1.256 -0.991,-1.389 -1.124,-0.328 -2.446,-0.461 -2.976,-0.594 -0.925,-0.198 -1.585,-0.728 -1.585,-1.255 0,-0.464 0.793,-0.859 1.454,-0.993 2.776,-0.66 6.677,-1.388 8.462,-2.445 1.19,-0.596 2.578,-1.124 3.039,-1.124 0.267,-0.066 0.596,0.265 0.596,0.66 0,0.728 -0.131,3.702 -0.199,8.527 -0.065,4.695 -0.065,16.328 0,24.195 0,4.428 -0.065,5.023 4.297,6.08 0.728,0.199 1.587,0.728 1.587,1.455 0,0.529 -1.057,0.792 -1.783,0.792 -1.059,0 -4.761,-0.263 -7.339,-0.263 -5.024,0 -8.925,0.398 -9.651,0.398 -0.927,0 -1.786,-0.265 -1.786,-0.861 -0.001,-0.596 0.726,-1.056 2.246,-1.455 z"
   id="path15"
   inkscape:connector-curvature="0"
   style="fill:#ffffff;stroke:#ffffff;stroke-width:0.93620002" />
	</g><g
     transform="matrix(1,0,0,1.1313472,0,-23.803407)"
     id="g17">
		<path
   d="m 350.032,328.671 c -0.064,-0.331 0.264,-0.925 0.793,-1.388 2.975,-2.71 7.602,-7.933 10.708,-11.833 3.369,-4.295 5.817,-9.254 5.817,-13.815 0,-5.42 -3.37,-7.866 -6.939,-7.866 -3.174,0 -5.882,1.851 -7.803,3.834 -0.857,0.859 -1.186,1.254 -1.388,1.254 -0.264,0 -0.857,-0.593 -0.857,-0.991 0,-0.395 0.198,-1.055 1.06,-2.313 2.972,-4.427 7.334,-7.337 12.291,-7.337 6.415,0 11.372,4.825 11.372,11.568 0,3.834 -2.38,7.932 -5.551,11.371 -3.241,3.503 -6.679,6.939 -11.703,11.832 -0.132,0.198 0.132,0.461 0.331,0.529 2.975,0.331 13.485,0.331 15.271,0 1.187,-0.199 2.442,-0.861 3.698,-2.446 0.466,-0.595 1.06,-1.19 1.455,-1.19 0.993,0 0.794,1.389 0.331,2.382 -1.32,2.842 -2.05,5.353 -2.381,6.939 -0.063,0.396 -0.591,0.66 -0.992,0.66 -0.328,0 -14.408,-0.33 -17.45,-0.33 -2.246,0 -4.89,0.132 -6.544,0.198 -0.462,-10e-4 -1.519,-0.661 -1.519,-1.058 z"
   id="path19"
   inkscape:connector-curvature="0"
   style="fill:#ffffff;stroke:#ffffff;stroke-width:0.93620002" />
	</g><g
     transform="matrix(1,0,0,1.1313472,0,-23.803407)"
     id="g21">
		<path
   d="m 230.074,428.19 c 0,2.843 -1.456,4.761 -2.381,5.686 -1.123,0.986 -2.048,1.716 -4.296,3.039 -0.199,0.135 -0.132,0.398 0.199,0.53 3.833,0.658 6.676,2.313 8.395,4.491 0.991,1.326 1.851,3.44 1.851,6.084 0,5.818 -3.834,10.907 -9.517,14.213 -3.439,1.985 -7.736,2.972 -10.907,2.972 -3.306,0 -6.679,-1.52 -6.679,-3.499 0,-0.398 0.398,-1.391 0.53,-1.722 0.662,-0.925 1.718,-1.584 2.313,-1.584 0.265,0 1.454,0.659 1.852,0.989 2.116,1.79 4.363,2.776 6.808,2.776 1.388,0 2.843,-0.393 4.231,-1.452 2.709,-1.985 3.9,-5.95 3.9,-8.594 0,-2.448 -0.662,-5.42 -2.313,-7.206 -1.654,-1.782 -3.503,-2.248 -5.685,-2.248 -1.388,0 -3.9,0.526 -5.092,0.928 -0.33,0.064 -0.594,-0.401 -0.527,-0.796 0.263,-0.861 0.925,-1.317 1.389,-1.716 0.527,-0.398 2.18,-1.323 3.171,-1.786 4.231,-1.851 5.882,-4.494 5.882,-7.735 0,-3.83 -2.973,-6.74 -6.346,-6.74 -2.641,0 -5.023,1.124 -6.938,3.438 -0.728,0.857 -1.125,1.188 -1.522,1.188 -0.527,0 -0.662,-0.398 -0.662,-0.993 -0.064,-0.986 1.919,-3.7 3.967,-5.354 2.379,-1.979 5.024,-3.04 8.528,-3.04 6.544,0 9.849,4.761 9.849,8.131 z"
   id="path23"
   inkscape:connector-curvature="0"
   style="fill:#ffffff;stroke:#ffffff;stroke-width:0.93620002" />
	</g><g
     transform="matrix(1,0,0,1.1313472,0,-23.803407)"
     id="g25">
		<path
   d="m 394.553,431.75 c 0,0.202 0.196,0.595 0.331,0.595 l 5.686,-0.196 c 0.264,0 0.662,0.331 0.662,0.661 0,0.595 -0.729,2.647 -1.391,2.911 l -4.89,-0.135 c -0.202,0 -0.331,0.267 -0.398,0.462 0,0.99 -0.067,3.836 0.067,5.622 0.199,3.37 0.595,3.634 3.569,4.559 0.857,0.264 1.455,0.595 1.455,1.125 0,0.327 -0.466,0.989 -1.783,0.989 -1.52,0.067 -5.159,-0.264 -7.276,-0.264 -2.512,0 -5.352,0.264 -7.665,0.264 -0.992,0 -1.651,-0.264 -1.651,-0.858 0,-0.526 0.858,-0.992 1.851,-1.323 3.432,-0.857 3.238,-1.452 3.566,-4.69 0.132,-1.786 0.132,-4.696 0.132,-5.092 0,-0.264 -0.132,-0.594 -0.46,-0.594 -4.298,-0.064 -13.618,-0.199 -15.866,0 -0.791,0.067 -1.189,-0.199 -1.189,-0.592 0,-0.729 0.595,-1.391 1.523,-2.778 l 20.952,-29.086 c 0.267,-0.462 0.857,-0.993 1.385,-0.993 l 1.06,0.064 c 0.662,0 0.861,0.334 0.861,0.527 0,0.135 0,0.466 -0.199,0.729 l -20.625,27.897 c -0.199,0.331 -0.128,0.463 0.067,0.527 1.452,0.264 6.349,0.264 12.225,0.264 0.07,0 0.337,-0.393 0.337,-0.527 l 0.064,-11.764 c 0,-0.398 0.263,-0.993 0.661,-1.256 0.794,-0.466 4.887,-1.587 6.014,-1.587 0.331,0 0.926,0.398 0.926,1.719 v 12.82 z"
   id="path27"
   inkscape:connector-curvature="0"
   style="fill:#ffffff;stroke:#ffffff;stroke-width:0.93620002" />
	</g></g>
<g
   id="g3838"
   inkscape:export-filename="/Users/dave/trash/icon96.png"
   inkscape:export-xdpi="43.200001"
   inkscape:export-ydpi="43.200001"><rect
     y="441.89001"
     x="192.98099"
     height="100"
     width="100"
     id="rect3006"
     style="fill:#f6aa00;fill-opacity:1;stroke:none" /><rect
     style="fill:#e74c94;fill-opacity:1;stroke:none"
     id="rect3776"
     width="100"
     height="100"
     x="292.98099"
     y="441.89001" /><rect
     y="541.89001"
     x="292.98099"
     height="100"
     width="100"
     id="rect3778"
     style="fill:#7a4f9c;fill-opacity:1;stroke:none" /><rect
     style="fill:#8dc21f;fill-opacity:1;stroke:none"
     id="rect3780"
     width="100"
     height="100"
     x="192.98047"
     y="541.89001" /><g
     id="g3790"
     transform="matrix(1,0,0,1.1313472,22.689969,89.519008)">
		<path
   style="fill:#ffffff;stroke:#ffffff;stroke-width:0.93620002"
   inkscape:connector-curvature="0"
   id="path3792"
   d="m 230.074,428.19 c 0,2.843 -1.456,4.761 -2.381,5.686 -1.123,0.986 -2.048,1.716 -4.296,3.039 -0.199,0.135 -0.132,0.398 0.199,0.53 3.833,0.658 6.676,2.313 8.395,4.491 0.991,1.326 1.851,3.44 1.851,6.084 0,5.818 -3.834,10.907 -9.517,14.213 -3.439,1.985 -7.736,2.972 -10.907,2.972 -3.306,0 -6.679,-1.52 -6.679,-3.499 0,-0.398 0.398,-1.391 0.53,-1.722 0.662,-0.925 1.718,-1.584 2.313,-1.584 0.265,0 1.454,0.659 1.852,0.989 2.116,1.79 4.363,2.776 6.808,2.776 1.388,0 2.843,-0.393 4.231,-1.452 2.709,-1.985 3.9,-5.95 3.9,-8.594 0,-2.448 -0.662,-5.42 -2.313,-7.206 -1.654,-1.782 -3.503,-2.248 -5.685,-2.248 -1.388,0 -3.9,0.526 -5.092,0.928 -0.33,0.064 -0.594,-0.401 -0.527,-0.796 0.263,-0.861 0.925,-1.317 1.389,-1.716 0.527,-0.398 2.18,-1.323 3.171,-1.786 4.231,-1.851 5.882,-4.494 5.882,-7.735 0,-3.83 -2.973,-6.74 -6.346,-6.74 -2.641,0 -5.023,1.124 -6.938,3.438 -0.728,0.857 -1.125,1.188 -1.522,1.188 -0.527,0 -0.662,-0.398 -0.662,-0.993 -0.064,-0.986 1.919,-3.7 3.967,-5.354 2.379,-1.979 5.024,-3.04 8.528,-3.04 6.544,0 9.849,4.761 9.849,8.131 z" />
	</g><g
     id="g3794"
     transform="matrix(1,0,0,1.1313472,-42.286512,107.103)">
		<path
   style="fill:#ffffff;stroke:#ffffff;stroke-width:0.93620002"
   inkscape:connector-curvature="0"
   id="path3796"
   d="m 394.553,431.75 c 0,0.202 0.196,0.595 0.331,0.595 l 5.686,-0.196 c 0.264,0 0.662,0.331 0.662,0.661 0,0.595 -0.729,2.647 -1.391,2.911 l -4.89,-0.135 c -0.202,0 -0.331,0.267 -0.398,0.462 0,0.99 -0.067,3.836 0.067,5.622 0.199,3.37 0.595,3.634 3.569,4.559 0.857,0.264 1.455,0.595 1.455,1.125 0,0.327 -0.466,0.989 -1.783,0.989 -1.52,0.067 -5.159,-0.264 -7.276,-0.264 -2.512,0 -5.352,0.264 -7.665,0.264 -0.992,0 -1.651,-0.264 -1.651,-0.858 0,-0.526 0.858,-0.992 1.851,-1.323 3.432,-0.857 3.238,-1.452 3.566,-4.69 0.132,-1.786 0.132,-4.696 0.132,-5.092 0,-0.264 -0.132,-0.594 -0.46,-0.594 -4.298,-0.064 -13.618,-0.199 -15.866,0 -0.791,0.067 -1.189,-0.199 -1.189,-0.592 0,-0.729 0.595,-1.391 1.523,-2.778 l 20.952,-29.086 c 0.267,-0.462 0.857,-0.993 1.385,-0.993 l 1.06,0.064 c 0.662,0 0.861,0.334 0.861,0.527 0,0.135 0,0.466 -0.199,0.729 l -20.625,27.897 c -0.199,0.331 -0.128,0.463 0.067,0.527 1.452,0.264 6.349,0.264 12.225,0.264 0.07,0 0.337,-0.393 0.337,-0.527 l 0.064,-11.764 c 0,-0.398 0.263,-0.993 0.661,-1.256 0.794,-0.466 4.887,-1.587 6.014,-1.587 0.331,0 0.926,0.398 0.926,1.719 v 12.82 z" />
	</g><g
     id="g3782"
     transform="matrix(1,0,0,1.1313472,22.516488,157.49041)">
		<path
   style="fill:#ffffff;stroke:#ffffff;stroke-width:0.93620002"
   inkscape:connector-curvature="0"
   id="path3784"
   d="m 212.431,313.892 c 3.77,-0.924 3.901,-1.849 4.165,-4.295 0.267,-1.917 0.596,-10.511 0.596,-19.434 0,-4.165 0.064,-7.072 -0.132,-7.999 -0.067,-0.527 -0.464,-1.256 -0.991,-1.389 -1.124,-0.328 -2.446,-0.461 -2.976,-0.594 -0.925,-0.198 -1.585,-0.728 -1.585,-1.255 0,-0.464 0.793,-0.859 1.454,-0.993 2.776,-0.66 6.677,-1.388 8.462,-2.445 1.19,-0.596 2.578,-1.124 3.039,-1.124 0.267,-0.066 0.596,0.265 0.596,0.66 0,0.728 -0.131,3.702 -0.199,8.527 -0.065,4.695 -0.065,16.328 0,24.195 0,4.428 -0.065,5.023 4.297,6.08 0.728,0.199 1.587,0.728 1.587,1.455 0,0.529 -1.057,0.792 -1.783,0.792 -1.059,0 -4.761,-0.263 -7.339,-0.263 -5.024,0 -8.925,0.398 -9.651,0.398 -0.927,0 -1.786,-0.265 -1.786,-0.861 -0.001,-0.596 0.726,-1.056 2.246,-1.455 z" />
	</g><g
     id="g3786"
     transform="matrix(1,0,0,1.1313472,-21.680857,140.04379)">
		<path
   style="fill:#ffffff;stroke:#ffffff;stroke-width:0.93620002"
   inkscape:connector-curvature="0"
   id="path3788"
   d="m 350.032,328.671 c -0.064,-0.331 0.264,-0.925 0.793,-1.388 2.975,-2.71 7.602,-7.933 10.708,-11.833 3.369,-4.295 5.817,-9.254 5.817,-13.815 0,-5.42 -3.37,-7.866 -6.939,-7.866 -3.174,0 -5.882,1.851 -7.803,3.834 -0.857,0.859 -1.186,1.254 -1.388,1.254 -0.264,0 -0.857,-0.593 -0.857,-0.991 0,-0.395 0.198,-1.055 1.06,-2.313 2.972,-4.427 7.334,-7.337 12.291,-7.337 6.415,0 11.372,4.825 11.372,11.568 0,3.834 -2.38,7.932 -5.551,11.371 -3.241,3.503 -6.679,6.939 -11.703,11.832 -0.132,0.198 0.132,0.461 0.331,0.529 2.975,0.331 13.485,0.331 15.271,0 1.187,-0.199 2.442,-0.861 3.698,-2.446 0.466,-0.595 1.06,-1.19 1.455,-1.19 0.993,0 0.794,1.389 0.331,2.382 -1.32,2.842 -2.05,5.353 -2.381,6.939 -0.063,0.396 -0.591,0.66 -0.992,0.66 -0.328,0 -14.408,-0.33 -17.45,-0.33 -2.246,0 -4.89,0.132 -6.544,0.198 -0.462,-10e-4 -1.519,-0.661 -1.519,-1.058 z" />
	</g></g></svg>